<svg width="40" height="40" viewBox="0 0 40 40" fill="none" xmlns="http://www.w3.org/2000/svg">
<circle cx="20" cy="20" r="20" fill="#3862E0"/>
<path d="M20.9994 24.673C21.1093 24.1935 21.2928 23.7221 21.5541 23.2739C22.953 20.8749 26.0512 20.0529 28.4741 21.438C30.0122 22.3173 30.9084 23.8747 31 25.5087C30.1653 26.1073 29.26 26.6092 28.3016 27.0023C26.6931 27.662 24.9717 28 23.2363 28C23.1061 28 22.9758 27.9981 22.8454 27.9943C20.6574 27.9303 18.5174 27.3298 16.6182 26.2441C15.1592 25.41 13.8796 24.3109 12.8435 23.0101C12.6286 22.7404 12.4242 22.4619 12.2307 22.1752C11.1028 20.5037 10.3782 18.5976 10.1132 16.6045C9.97769 15.585 9.96422 14.5567 10.0707 13.5407C11.5451 12.8037 13.3539 12.7941 14.891 13.6728C17.3139 15.058 18.1441 18.1257 16.7452 20.5248C16.4841 20.9726 16.1637 21.3655 15.7996 21.6994" stroke="white" stroke-width="1.5" stroke-linecap="round" stroke-linejoin="round"/>
</svg>
