<svg width="23" height="24" viewBox="0 0 23 24" fill="none" xmlns="http://www.w3.org/2000/svg">
<path d="M17.3542 19.4685L17.0323 19.2818C16.4244 19.7496 15.7638 20.1351 15.0684 20.4337L15.0694 20.8177C15.0724 22.026 14.0969 23.003 12.8905 23L10.1313 22.993C8.92485 22.99 7.94441 22.008 7.94137 20.7997L7.94058 20.4851C7.56124 20.3284 7.18781 20.1445 6.82272 19.9328C6.50629 19.7493 6.20473 19.5498 5.91849 19.3361L5.66735 19.4809C4.62409 20.0824 3.28723 19.7205 2.6814 18.6726L1.29577 16.2758C0.689935 15.2279 1.04454 13.8908 2.08781 13.2893L2.2889 13.1733C2.17788 12.3669 2.17265 11.5438 2.27918 10.726L2.09853 10.6212C1.05223 10.0145 0.690901 8.67554 1.29148 7.63066L2.66509 5.24086C3.26567 4.19599 4.60072 3.84084 5.64702 4.44762L5.86955 4.57667C6.49782 4.10678 7.18029 3.72337 7.89776 3.43154L7.89714 3.18228C7.8941 1.974 8.86963 0.99696 10.076 1.00001L12.8353 1.00698C14.0417 1.01003 15.0221 1.992 15.0252 3.20028L15.026 3.51792C15.3491 3.65879 15.6677 3.81961 15.9801 4.00081C16.3412 4.21023 16.683 4.44037 17.0047 4.68885L17.2992 4.51905C18.3425 3.91754 19.6793 4.27944 20.2852 5.32737L21.6708 7.72413C22.2766 8.77206 21.922 10.1092 20.8788 10.7107L20.5333 10.9099C20.6202 11.6276 20.6235 12.3574 20.5389 13.0839L20.9027 13.2948C21.949 13.9016 22.3103 15.2405 21.7097 16.2854L21.0229 17.4803L15.3393 14.1842C16.5721 12.0394 15.8304 9.2911 13.6828 8.04561C11.5351 6.80011 8.79473 7.5291 7.56196 9.67385C6.3292 11.8186 7.07087 14.5669 9.21854 15.8124C9.94215 16.2321 10.733 16.4276 11.5109 16.4203" stroke="black" stroke-width="1.5" stroke-linecap="round" stroke-linejoin="round"/>
</svg>
