<svg width="40" height="40" viewBox="0 0 40 40" fill="none" xmlns="http://www.w3.org/2000/svg">
<circle cx="20" cy="20" r="20" fill="#E0D438"/>
<path d="M20.4026 9.57839L19.7214 9.89219V9.89219L20.4026 9.57839ZM23.0528 15.3315L23.734 15.0177V15.0177L23.0528 15.3315ZM23.8384 15.9029L23.75 16.6477H23.75L23.8384 15.9029ZM30.1219 16.6489L30.2103 15.9041L30.1219 16.6489ZM30.6797 18.3679L30.1701 17.8176L30.1701 17.8176L30.6797 18.3679ZM26.0341 22.6695L26.5437 23.2198L26.0341 22.6695ZM25.5068 30.8707L25.8735 30.2164L25.5068 30.8707ZM19.9855 27.7761L19.6188 28.4303H19.6188L19.9855 27.7761ZM19.0145 27.7761L19.3812 28.4303H19.3812L19.0145 27.7761ZM13.4932 30.8707L13.1265 30.2164H13.1265L13.4932 30.8707ZM12.0328 29.8083L12.7684 29.9542L12.0328 29.8083ZM13.2659 23.5941L12.5303 23.4481L13.2659 23.5941ZM12.9659 22.6695L13.4754 22.1192L12.9659 22.6695ZM8.32032 18.3679L8.82989 17.8176H8.82989L8.32032 18.3679ZM8.87814 16.6489L8.78973 15.9041H8.78973L8.87814 16.6489ZM15.1616 15.9029L15.25 16.6477L15.1616 15.9029ZM15.9472 15.3315L15.266 15.0177V15.0177L15.9472 15.3315ZM18.5974 9.57839L17.9162 9.26458L17.9162 9.26458L18.5974 9.57839ZM26.9672 29.8083L26.2316 29.9542L26.9672 29.8083ZM25.7341 23.5941L24.9984 23.7401V23.7401L25.7341 23.5941ZM27.4471 28.3732C27.3665 27.9669 26.9717 27.7029 26.5654 27.7835C26.1592 27.8641 25.8952 28.2589 25.9758 28.6652L27.4471 28.3732ZM25.1485 24.4961C25.2291 24.9024 25.6238 25.1664 26.0301 25.0858C26.4364 25.0052 26.7004 24.6104 26.6198 24.2042L25.1485 24.4961ZM19.7214 9.89219L22.3716 15.6453L23.734 15.0177L21.0838 9.26458L19.7214 9.89219ZM23.75 16.6477L30.0334 17.3937L30.2103 15.9041L23.9268 15.1582L23.75 16.6477ZM30.1701 17.8176L25.5246 22.1192L26.5437 23.2198L31.1892 18.9182L30.1701 17.8176ZM25.8735 30.2164L20.3522 27.1218L19.6188 28.4303L25.1402 31.5249L25.8735 30.2164ZM18.6478 27.1218L13.1265 30.2164L13.8598 31.5249L19.3812 28.4303L18.6478 27.1218ZM12.7684 29.9542L14.0016 23.7401L12.5303 23.4481L11.2971 29.6623L12.7684 29.9542ZM13.4754 22.1192L8.82989 17.8176L7.81076 18.9182L12.4563 23.2198L13.4754 22.1192ZM8.96656 17.3937L15.25 16.6477L15.0732 15.1582L8.78973 15.9041L8.96656 17.3937ZM16.6284 15.6453L19.2786 9.89219L17.9162 9.26458L15.266 15.0177L16.6284 15.6453ZM15.25 16.6477C15.8528 16.5762 16.3745 16.1963 16.6284 15.6453L15.266 15.0177C15.2302 15.0953 15.1571 15.1482 15.0732 15.1582L15.25 16.6477ZM8.82989 17.8176C8.67547 17.6746 8.76101 17.4181 8.96656 17.3937L8.78973 15.9041C7.31072 16.0797 6.71973 17.908 7.81076 18.9182L8.82989 17.8176ZM14.0016 23.7401C14.1196 23.1452 13.9206 22.5314 13.4754 22.1192L12.4563 23.2198C12.5187 23.2776 12.5469 23.3641 12.5303 23.4481L14.0016 23.7401ZM13.1265 30.2164C12.9468 30.3171 12.7272 30.1617 12.7684 29.9542L11.2971 29.6623C11.0077 31.1208 12.5593 32.2539 13.8598 31.5249L13.1265 30.2164ZM20.3522 27.1218C19.8228 26.8251 19.1772 26.8251 18.6478 27.1218L19.3812 28.4303C19.455 28.3889 19.545 28.3889 19.6188 28.4303L20.3522 27.1218ZM26.2316 29.9542C26.2728 30.1617 26.0532 30.3171 25.8735 30.2164L25.1402 31.5249C26.4407 32.2539 27.9923 31.1208 27.7029 29.6623L26.2316 29.9542ZM25.5246 22.1192C25.0794 22.5314 24.8804 23.1452 24.9984 23.7401L26.4697 23.4481C26.4531 23.3641 26.4813 23.2776 26.5437 23.2198L25.5246 22.1192ZM30.0334 17.3937C30.239 17.4181 30.3245 17.6746 30.1701 17.8176L31.1892 18.9182C32.2803 17.908 31.6893 16.0797 30.2103 15.9041L30.0334 17.3937ZM22.3716 15.6453C22.6255 16.1963 23.1472 16.5762 23.75 16.6477L23.9268 15.1582C23.8429 15.1482 23.7698 15.0953 23.734 15.0177L22.3716 15.6453ZM21.0838 9.26458C20.4606 7.9118 18.5394 7.91181 17.9162 9.26458L19.2786 9.89219C19.366 9.7026 19.634 9.7026 19.7214 9.89219L21.0838 9.26458ZM25.9758 28.6652L26.2316 29.9542L27.7029 29.6623L27.4471 28.3732L25.9758 28.6652ZM24.9984 23.7401L25.1485 24.4961L26.6198 24.2042L26.4697 23.4481L24.9984 23.7401Z" fill="#3B5261"/>
</svg>
