<svg width="29" height="29" viewBox="0 0 29 29" fill="none" xmlns="http://www.w3.org/2000/svg">
<circle cx="14.5" cy="14.5" r="14.5" fill="#3862E0"/>
<g clip-path="url(#clip0_191_48)">
<path d="M19.1667 7.49993C19.3856 7.28106 19.6454 7.10744 19.9314 6.98899C20.2173 6.87054 20.5238 6.80957 20.8334 6.80957C21.1429 6.80957 21.4494 6.87054 21.7353 6.98899C22.0213 7.10744 22.2812 7.28106 22.5 7.49993C22.7189 7.7188 22.8925 7.97863 23.011 8.2646C23.1294 8.55057 23.1904 8.85706 23.1904 9.16659C23.1904 9.47612 23.1294 9.78262 23.011 10.0686C22.8925 10.3546 22.7189 10.6144 22.5 10.8333L11.25 22.0833L6.66669 23.3333L7.91669 18.7499L19.1667 7.49993Z" stroke="white" stroke-width="2" stroke-linecap="round" stroke-linejoin="round"/>
</g>
<defs>
<clipPath id="clip0_191_48">
<rect width="20" height="20" fill="white" transform="translate(5 5)"/>
</clipPath>
</defs>
</svg>
