<svg width="34" height="34" viewBox="0 0 34 34" fill="none" xmlns="http://www.w3.org/2000/svg">
<rect width="34" height="34" rx="17" fill="#3862E0"/>
<path d="M13.4381 23.7896L9 25L10.2104 20.5619L21.1038 9.66848C21.3158 9.45654 21.5674 9.28843 21.8443 9.17373C22.1212 9.05903 22.418 9 22.7177 9C23.0174 9 23.3142 9.05903 23.5911 9.17373C23.868 9.28843 24.1196 9.45654 24.3315 9.66848C24.5435 9.88041 24.7116 10.132 24.8263 10.4089C24.941 10.6858 25 10.9826 25 11.2823C25 11.582 24.941 11.8788 24.8263 12.1557C24.7116 12.4326 24.5435 12.6842 24.3315 12.8962L16.2277 21" stroke="white" stroke-width="2" stroke-linecap="round" stroke-linejoin="round"/>
</svg>
