<svg width="40" height="40" viewBox="0 0 40 40" fill="none" xmlns="http://www.w3.org/2000/svg">
<circle cx="20" cy="20" r="20" fill="#DE2A2A"/>
<path d="M20.9992 27.2767C23.6153 27.5171 26.315 26.6359 28.3178 24.6331C31.8941 21.0568 31.8941 15.2585 28.3178 11.6822C24.7415 8.10593 18.9432 8.10593 15.3669 11.6822C13.3641 13.685 12.4829 16.3847 12.7233 19.0008C12.825 20.1072 12.5737 21.2579 11.788 22.0435L10.2775 23.554C8.57416 25.2574 8.57416 28.0191 10.2775 29.7225C11.9809 31.4258 14.7426 31.4258 16.446 29.7225L17.9565 28.212L13.6733 23.9288L19.4309 18.1712C20.0931 17.5091 21.1666 17.5091 21.8288 18.1712C22.4909 18.8334 22.4909 19.9069 21.8288 20.5691L18.3045 24.0934" stroke="white" stroke-width="1.5" stroke-linecap="round" stroke-linejoin="round"/>
</svg>
