<svg width="40" height="40" viewBox="0 0 40 40" fill="none" xmlns="http://www.w3.org/2000/svg">
<circle cx="20" cy="20" r="20" fill="#E0D438"/>
<path d="M18.9317 23.8592C19.6163 24.2474 20.3619 24.5262 21.1421 24.6814C22.5798 24.9674 24.0701 24.8206 25.4245 24.2596C26.7788 23.6986 27.9364 22.7486 28.7509 21.5297C29.5653 20.3109 30 18.8778 30 17.4119C30 16.322 29.1164 15.4384 28.0265 15.4384C26.9366 15.4384 26.053 16.322 26.053 17.4119C26.053 18.0972 25.8498 18.7671 25.4691 19.3369C25.0883 19.9067 24.5472 20.3508 23.914 20.6131C23.2809 20.8753 22.5842 20.944 21.9121 20.8103C21.24 20.6766 20.6226 20.3466 20.138 19.862C19.6534 19.3774 19.3234 18.76 19.1897 18.0879C19.056 17.4158 19.1246 16.7191 19.3869 16.0859C19.6491 15.4528 20.0932 14.9117 20.663 14.5309C21.2329 14.1502 21.9028 13.947 22.5881 13.947C23.678 13.947 24.5616 13.0634 24.5616 11.9735C24.5616 10.8836 23.678 10 22.5881 10C21.1221 10 19.6891 10.4347 18.4702 11.2491C17.2513 12.0636 16.3013 13.2211 15.7403 14.5755C15.1793 15.9298 15.0326 17.4201 15.3185 18.8579C15.4737 19.6381 15.7526 20.3838 16.1408 21.0683L10.578 26.631C9.80733 27.4017 9.80733 28.6513 10.578 29.422C11.3487 30.1927 12.5983 30.1927 13.369 29.422L16.6667 26.1243" stroke="#3B5261" stroke-width="1.5" stroke-linecap="round"/>
</svg>
