<svg width="40" height="40" viewBox="0 0 40 40" fill="none" xmlns="http://www.w3.org/2000/svg">
<circle cx="20" cy="20" r="20" fill="#3862E0"/>
<path d="M26.3846 19.5584V20.3084C26.7988 20.3084 27.1346 19.9726 27.1346 19.5584H26.3846ZM13.8654 16.8315C13.8654 17.2457 14.2012 17.5815 14.6154 17.5815C15.0296 17.5815 15.3654 17.2457 15.3654 16.8315H13.8654ZM20.5 23.1481H21.25C21.25 22.7339 20.9142 22.3981 20.5 22.3981V23.1481ZM19.75 26.2536C19.75 26.6678 20.0858 27.0036 20.5 27.0036C20.9142 27.0036 21.25 26.6678 21.25 26.2536H19.75ZM19.6593 22.3981C19.2451 22.3981 18.9093 22.7339 18.9093 23.1481C18.9093 23.5624 19.2451 23.8981 19.6593 23.8981V22.3981ZM28.8426 19.8713C28.5591 19.5693 28.0844 19.5543 27.7824 19.8378C27.4805 20.1213 27.4655 20.596 27.749 20.898L28.8426 19.8713ZM16.9336 10.75H24.0664V9.25H16.9336V10.75ZM25.6346 12.3077V19.5584H27.1346V12.3077H25.6346ZM26.3846 18.8084H14.3182V20.3084H26.3846V18.8084ZM11.25 21.8661V27.6923H12.75V21.8661H11.25ZM14.3182 30.75H26.6818V29.25H14.3182V30.75ZM15.3654 16.8315V12.3077H13.8654V16.8315H15.3654ZM29.75 27.6923V22.162H28.25V27.6923H29.75ZM19.75 23.1481V26.2536H21.25V23.1481H19.75ZM20.5 22.3981H19.6593V23.8981H20.5V22.3981ZM11.25 27.6923C11.25 29.3842 12.6269 30.75 14.3182 30.75V29.25C13.4489 29.25 12.75 28.5494 12.75 27.6923H11.25ZM24.0664 10.75C24.9357 10.75 25.6346 11.4506 25.6346 12.3077H27.1346C27.1346 10.6158 25.7577 9.25 24.0664 9.25V10.75ZM16.9336 9.25C15.2423 9.25 13.8654 10.6158 13.8654 12.3077H15.3654C15.3654 11.4506 16.0643 10.75 16.9336 10.75V9.25ZM26.6818 30.75C28.3731 30.75 29.75 29.3842 29.75 27.6923H28.25C28.25 28.5494 27.5511 29.25 26.6818 29.25V30.75ZM14.3182 18.8084C12.6269 18.8084 11.25 20.1742 11.25 21.8661H12.75C12.75 21.009 13.4489 20.3084 14.3182 20.3084V18.8084ZM29.75 22.162C29.75 21.2762 29.4045 20.4698 28.8426 19.8713L27.749 20.898C28.0608 21.2301 28.25 21.6735 28.25 22.162H29.75Z" fill="white"/>
</svg>
