<svg width="77" height="77" viewBox="0 0 77 77" fill="none" xmlns="http://www.w3.org/2000/svg">
<ellipse cx="38.4693" cy="38.1769" rx="38.1769" ry="38.1769" fill="#E0D438"/>
<path d="M51.4003 37.2484V38.7484C52.2287 38.7484 52.9003 38.0769 52.9003 37.2484H51.4003ZM24.9772 31.5219C24.9772 32.3504 25.6488 33.0219 26.4772 33.0219C27.3056 33.0219 27.9772 32.3504 27.9772 31.5219H24.9772ZM38.9387 44.7869H40.4387C40.4387 43.9585 39.7671 43.2869 38.9387 43.2869V44.7869ZM37.4387 51.3083C37.4387 52.1367 38.1103 52.8083 38.9387 52.8083C39.7671 52.8083 40.4387 52.1367 40.4387 51.3083H37.4387ZM37.1585 43.2869C36.3301 43.2869 35.6585 43.9585 35.6585 44.7869C35.6585 45.6153 36.3301 46.2869 37.1585 46.2869V43.2869ZM56.5367 37.9522C55.9672 37.3506 55.0178 37.3247 54.4162 37.8942C53.8146 38.4637 53.7886 39.4131 54.3582 40.0147L56.5367 37.9522ZM31.3863 18.6758H46.4912V15.6758H31.3863V18.6758ZM49.9003 22.0219V37.2484H52.9003V22.0219H49.9003ZM51.4003 35.7484H25.8478V38.7484H51.4003V35.7484ZM19.4387 42.0946V54.3296H22.4387V42.0946H19.4387ZM25.8478 60.6758H52.0296V57.6758H25.8478V60.6758ZM27.9772 31.5219V22.0219H24.9772V31.5219H27.9772ZM58.4387 54.3296V42.7159H55.4387V54.3296H58.4387ZM37.4387 44.7869V51.3083H40.4387V44.7869H37.4387ZM38.9387 43.2869H37.1585V46.2869H38.9387V43.2869ZM19.4387 54.3296C19.4387 57.8527 22.3265 60.6758 25.8478 60.6758V57.6758C23.9467 57.6758 22.4387 56.1595 22.4387 54.3296H19.4387ZM46.4912 18.6758C48.3923 18.6758 49.9003 20.1921 49.9003 22.0219H52.9003C52.9003 18.4989 50.0125 15.6758 46.4912 15.6758V18.6758ZM31.3863 15.6758C27.8649 15.6758 24.9772 18.4989 24.9772 22.0219H27.9772C27.9772 20.1921 29.4852 18.6758 31.3863 18.6758V15.6758ZM52.0296 60.6758C55.551 60.6758 58.4387 57.8527 58.4387 54.3296H55.4387C55.4387 56.1595 53.9307 57.6758 52.0296 57.6758V60.6758ZM25.8478 35.7484C22.3265 35.7484 19.4387 38.5715 19.4387 42.0946H22.4387C22.4387 40.2647 23.9467 38.7484 25.8478 38.7484V35.7484ZM58.4387 42.7159C58.4387 40.8718 57.7132 39.1949 56.5367 37.9522L54.3582 40.0147C55.0318 40.7263 55.4387 41.6741 55.4387 42.7159H58.4387Z" fill="#3B5261"/>
</svg>
