<svg width="77" height="78" viewBox="0 0 77 78" fill="none" xmlns="http://www.w3.org/2000/svg">
<ellipse cx="38.5306" cy="39.0011" rx="38.1769" ry="38.1769" fill="#3862E0"/>
<path d="M51.4615 38.0726V39.5726C52.29 39.5726 52.9615 38.9011 52.9615 38.0726H51.4615ZM25.0385 32.3462V33.8462H28.0385V32.3462H25.0385ZM39 45.6111H40.5C40.5 44.7827 39.8284 44.1111 39 44.1111V45.6111ZM37.5 52.1325C37.5 52.9609 38.1716 53.6325 39 53.6325C39.8284 53.6325 40.5 52.9609 40.5 52.1325H37.5ZM37.2198 44.1111C36.3914 44.1111 35.7198 44.7827 35.7198 45.6111C35.7198 46.4395 36.3914 47.1111 37.2198 47.1111V44.1111ZM56.598 38.7764C56.0284 38.1748 55.0791 38.1489 54.4775 38.7184C53.8759 39.288 53.8499 40.2374 54.4194 40.8389L56.598 38.7764ZM31.4476 19.5H46.5525V16.5H31.4476V19.5ZM49.9615 22.8462V38.0726H52.9615V22.8462H49.9615ZM51.4615 36.5726H25.9091V39.5726H51.4615V36.5726ZM19.5 42.9188V55.1538H22.5V42.9188H19.5ZM25.9091 61.5H52.0909V58.5H25.9091V61.5ZM28.0385 32.3462V22.8462H25.0385V32.3462H28.0385ZM58.5 55.1538V43.5401H55.5V55.1538H58.5ZM37.5 45.6111V52.1325H40.5V45.6111H37.5ZM39 44.1111H37.2198V47.1111H39V44.1111ZM19.5 55.1538C19.5 58.6769 22.3878 61.5 25.9091 61.5V58.5C24.008 58.5 22.5 56.9837 22.5 55.1538H19.5ZM46.5525 19.5C48.4535 19.5 49.9615 21.0163 49.9615 22.8462H52.9615C52.9615 19.3231 50.0738 16.5 46.5525 16.5V19.5ZM31.4476 16.5C27.9262 16.5 25.0385 19.3231 25.0385 22.8462H28.0385C28.0385 21.0163 29.5465 19.5 31.4476 19.5V16.5ZM52.0909 61.5C55.6122 61.5 58.5 58.6769 58.5 55.1538H55.5C55.5 56.9837 53.992 58.5 52.0909 58.5V61.5ZM25.9091 36.5726C22.3878 36.5726 19.5 39.3957 19.5 42.9188H22.5C22.5 41.089 24.008 39.5726 25.9091 39.5726V36.5726ZM58.5 43.5401C58.5 41.696 57.7745 40.0191 56.598 38.7764L54.4194 40.8389C55.0931 41.5505 55.5 42.4983 55.5 43.5401H58.5Z" fill="white"/>
</svg>
