<svg width="77" height="77" viewBox="0 0 77 77" fill="none" xmlns="http://www.w3.org/2000/svg">
<ellipse cx="38.4693" cy="38.1769" rx="38.1769" ry="38.1769" fill="#3862E0"/>
<path d="M52.2925 17.1758H53.7925C53.7925 16.3474 53.1209 15.6758 52.2925 15.6758V17.1758ZM24.2925 57.1758H22.7925C22.7925 58.0042 23.4641 58.6758 24.2925 58.6758V57.1758ZM24.2925 17.1758V15.6758C23.4641 15.6758 22.7925 16.3474 22.7925 17.1758H24.2925ZM52.2925 33.1758L53.7925 33.1758V33.1758H52.2925ZM52.2925 41.1758L50.7925 41.1758V41.1758H52.2925ZM31.2925 25.6758C30.4641 25.6758 29.7925 26.3474 29.7925 27.1758C29.7925 28.0042 30.4641 28.6758 31.2925 28.6758V25.6758ZM52.2925 27.1758H53.7925C53.7925 26.3474 53.1209 25.6758 52.2925 25.6758V27.1758ZM31.2925 35.6758C30.4641 35.6758 29.7925 36.3474 29.7925 37.1758C29.7925 38.0042 30.4641 38.6758 31.2925 38.6758V35.6758ZM45.2925 38.6758C46.1209 38.6758 46.7925 38.0042 46.7925 37.1758C46.7925 36.3474 46.1209 35.6758 45.2925 35.6758V38.6758ZM31.2925 45.6758C30.4641 45.6758 29.7925 46.3474 29.7925 47.1758C29.7925 48.0042 30.4641 48.6758 31.2925 48.6758V45.6758ZM45.2925 48.6758C46.1209 48.6758 46.7925 48.0042 46.7925 47.1758C46.7925 46.3474 46.1209 45.6758 45.2925 45.6758V48.6758ZM50.7925 22.1758C50.7925 23.0042 51.4641 23.6758 52.2925 23.6758C53.1209 23.6758 53.7925 23.0042 53.7925 22.1758H50.7925ZM24.2925 18.6758H52.2925V15.6758H24.2925V18.6758ZM25.7925 57.1758V17.1758H22.7925V57.1758H25.7925ZM50.7925 33.1758L50.7925 41.1758L53.7925 41.1758L53.7925 33.1758L50.7925 33.1758ZM31.2925 28.6758H52.2925V25.6758H31.2925V28.6758ZM31.2925 38.6758H45.2925V35.6758H31.2925V38.6758ZM31.2925 48.6758H45.2925V45.6758H31.2925V48.6758ZM50.7925 27.1758V33.1758H53.7925V27.1758H50.7925ZM50.7925 41.1758V51.1758H53.7925V41.1758H50.7925ZM46.2925 55.6758H24.2925V58.6758H46.2925V55.6758ZM50.7925 17.1758V22.1758H53.7925V17.1758H50.7925ZM50.7925 51.1758C50.7925 53.6611 48.7778 55.6758 46.2925 55.6758V58.6758C50.4346 58.6758 53.7925 55.3179 53.7925 51.1758H50.7925Z" fill="white"/>
</svg>
