<svg width="24" height="16" viewBox="0 0 24 16" fill="none" xmlns="http://www.w3.org/2000/svg">
<path d="M1 8L0.371428 7.59086L0.105115 8L0.371428 8.40914L1 8ZM23 8L23.6286 8.40914L23.8949 8L23.6286 7.59086L23 8ZM12 12H12.75V11.25H12V12ZM12 15H11.25V15.75L12 15.75L12 15ZM8.78419 15.2722C9.18088 15.3913 9.59909 15.1664 9.71828 14.7697C9.83747 14.373 9.61251 13.9548 9.21581 13.8356L8.78419 15.2722ZM21 5.40114L21.5532 4.89467L21 5.40114ZM14.4377 10.1495C14.1636 10.4601 14.1931 10.934 14.5037 11.2081C14.8143 11.4822 15.2882 11.4527 15.5623 11.1421L14.4377 10.1495ZM12 11.25C10.2051 11.25 8.75 9.79493 8.75 8H7.25C7.25 10.6234 9.37665 12.75 12 12.75V11.25ZM8.75 8C8.75 6.20507 10.2051 4.75 12 4.75V3.25C9.37665 3.25 7.25 5.37665 7.25 8H8.75ZM12 4.75C13.7949 4.75 15.25 6.20507 15.25 8H16.75C16.75 5.37665 14.6234 3.25 12 3.25V4.75ZM22.3714 7.59086C19.4328 12.1055 15.6628 14.25 12 14.25L12 15.75C16.2996 15.75 20.4921 13.2278 23.6286 8.40914L22.3714 7.59086ZM11.25 12V15H12.75V12H11.25ZM9.21581 13.8356C6.49073 13.0168 3.8255 10.966 1.62857 7.59086L0.371428 8.40914C2.71596 12.0111 5.64688 14.3295 8.78419 15.2722L9.21581 13.8356ZM1.62857 8.40914C4.26327 4.3614 7.56827 2.21945 10.855 1.81955C14.1318 1.42086 17.5418 2.73473 20.4468 5.9076L21.5532 4.89467C18.3839 1.43313 14.517 -0.137067 10.6739 0.330529C6.84073 0.796912 3.18286 3.2716 0.371428 7.59086L1.62857 8.40914ZM20.4468 5.9076C21.1188 6.6415 21.7633 7.47489 22.3714 8.40914L23.6286 7.59086C22.9787 6.59243 22.2843 5.69324 21.5532 4.89467L20.4468 5.9076ZM15.25 8C15.25 8.82475 14.9438 9.57615 14.4377 10.1495L15.5623 11.1421C16.301 10.3052 16.75 9.20414 16.75 8H15.25Z" fill="white"/>
</svg>
