<svg width="40" height="40" viewBox="0 0 40 40" fill="none" xmlns="http://www.w3.org/2000/svg">
<circle cx="20" cy="20" r="20" fill="#DE2A2A"/>
<path d="M31.231 15.224C31.4359 14.6514 31.6836 14.1881 32 13.8689L29.0845 9.96978C29.0845 9.96978 22.4528 9.96978 20.5 8C18.5472 9.96978 11.9155 9.96978 11.9155 9.96978L9 13.8689C11.9155 16.8098 9 32 20.5 32C29.3317 32 29.6613 23.041 30.6594 17.5516H27.4H22.1289L20.5 12.6154L18.8711 17.5516H13.6L17.8644 20.6023L16.2356 25.5385L20.5 22.4877L24.7644 25.5385L23.1356 20.6023L24.4496 19.6622" stroke="white" stroke-width="1.5" stroke-linecap="round" stroke-linejoin="round"/>
</svg>
