<svg width="40" height="40" viewBox="0 0 40 40" fill="none" xmlns="http://www.w3.org/2000/svg">
<circle cx="20" cy="20" r="20" fill="#3862E0"/>
<path d="M15.25 11.4067C13.6538 12.3283 12.3283 13.6538 11.4067 15.25C10.4852 16.8462 10 18.6569 10 20.5C10 22.3431 10.4852 24.1538 11.4067 25.75C12.3283 27.3462 13.6538 28.6717 15.25 29.5933" stroke="white" stroke-width="1.5" stroke-linecap="round"/>
<path d="M25.75 11.4067C27.3462 12.3283 28.6717 13.6538 29.5933 15.25C30.5148 16.8462 31 18.6569 31 20.5C31 22.3431 30.5148 24.1538 29.5933 25.75C28.6717 27.3462 27.3462 28.6717 25.75 29.5933" stroke="white" stroke-width="1.5" stroke-linecap="round"/>
<path d="M20.5 14.9412V20.5M20.5 26.0588V20.5M14.9412 20.5H20.5M20.5 20.5H26.0588" stroke="white" stroke-width="1.5" stroke-linecap="round"/>
</svg>
